<?xml version="1.0" encoding="utf-8"?>
<!-- Generator: Adobe Illustrator 22.0.1, SVG Export Plug-In . SVG Version: 6.00 Build 0)  -->
<svg version="1.1" id="Layer_1" xmlns="http://www.w3.org/2000/svg" xmlns:xlink="http://www.w3.org/1999/xlink" x="0px" y="0px"
	 viewBox="0 0 83.905 96.102" enable-background="new 0 0 83.905 96.102" xml:space="preserve">
<g>
	<g>
		<circle fill="#EB6626" cx="7.187" cy="32.878" r="2.529"/>
		<circle fill="#EB6626" cx="7.187" cy="37.936" r="2.529"/>
		<circle fill="#EB6626" cx="7.187" cy="42.995" r="2.529"/>
		<circle fill="#EB6626" cx="7.187" cy="48.054" r="2.529"/>
		<circle fill="#EB6626" cx="7.187" cy="53.113" r="2.529"/>
		<circle fill="#EB6626" cx="7.187" cy="58.171" r="2.529"/>
		<circle fill="#EB6626" cx="7.187" cy="63.23" r="2.529"/>
		<circle fill="#EB6626" cx="11.567" cy="35.405" r="2.529"/>
		<circle fill="#EB6626" cx="11.567" cy="40.462" r="2.529"/>
		<circle fill="#EB6626" cx="11.567" cy="45.52" r="2.529"/>
		<circle fill="#EB6626" cx="11.567" cy="50.577" r="2.529"/>
		<circle fill="#EB6626" cx="11.567" cy="55.634" r="2.529"/>
		<circle fill="#EB6626" cx="11.567" cy="60.691" r="2.529"/>
		<circle fill="#EB6626" cx="15.947" cy="37.933" r="2.529"/>
		<circle fill="#EB6626" cx="15.947" cy="42.988" r="2.529"/>
		<circle fill="#EB6626" cx="15.947" cy="48.044" r="2.529"/>
		<circle fill="#EB6626" cx="15.947" cy="53.1" r="2.529"/>
		<circle fill="#EB6626" cx="15.947" cy="58.156" r="2.529"/>
		<circle fill="#EB6626" cx="20.328" cy="40.459" r="2.529"/>
		<circle fill="#EB6626" cx="20.328" cy="45.511" r="2.529"/>
		<circle fill="#EB6626" cx="20.328" cy="50.564" r="2.529"/>
		<circle fill="#EB6626" cx="20.328" cy="55.617" r="2.529"/>
		<circle fill="#EB6626" cx="24.708" cy="42.995" r="2.529"/>
		<circle fill="#EB6626" cx="24.708" cy="48.055" r="2.529"/>
		<circle fill="#EB6626" cx="24.708" cy="53.116" r="2.529"/>
		<circle fill="#EB6626" cx="29.088" cy="45.511" r="2.529"/>
		<circle fill="#EB6626" cx="29.088" cy="50.559" r="2.529"/>
		<circle fill="#EB6626" cx="33.469" cy="48.029" r="2.529"/>
	</g>
	<g>
		<circle fill="#DF2729" cx="77.272" cy="63.223" r="2.529"/>
		<circle fill="#DF2729" cx="77.272" cy="58.164" r="2.529"/>
		<circle fill="#DF2729" cx="77.272" cy="53.106" r="2.529"/>
		<circle fill="#DF2729" cx="77.272" cy="48.047" r="2.529"/>
		<circle fill="#DF2729" cx="77.272" cy="42.988" r="2.529"/>
		<circle fill="#DF2729" cx="77.272" cy="37.93" r="2.529"/>
		<circle fill="#DF2729" cx="77.272" cy="32.871" r="2.529"/>
		<circle fill="#DF2729" cx="72.891" cy="60.696" r="2.529"/>
		<circle fill="#DF2729" cx="72.891" cy="55.638" r="2.529"/>
		<circle fill="#DF2729" cx="72.891" cy="50.581" r="2.529"/>
		<circle fill="#DF2729" cx="72.891" cy="45.524" r="2.529"/>
		<circle fill="#DF2729" cx="72.891" cy="40.467" r="2.529"/>
		<circle fill="#DF2729" cx="72.891" cy="35.41" r="2.529"/>
		<circle fill="#DF2729" cx="68.511" cy="58.168" r="2.529"/>
		<circle fill="#DF2729" cx="68.511" cy="53.112" r="2.529"/>
		<circle fill="#DF2729" cx="68.511" cy="48.057" r="2.529"/>
		<circle fill="#DF2729" cx="68.511" cy="43.001" r="2.529"/>
		<circle fill="#DF2729" cx="68.511" cy="37.945" r="2.529"/>
		<circle fill="#DF2729" cx="64.131" cy="55.642" r="2.529"/>
		<circle fill="#DF2729" cx="64.131" cy="50.589" r="2.529"/>
		<circle fill="#DF2729" cx="64.131" cy="45.537" r="2.529"/>
		<circle fill="#DF2729" cx="64.131" cy="40.484" r="2.529"/>
		<circle fill="#DF2729" cx="59.75" cy="53.106" r="2.529"/>
		<circle fill="#DF2729" cx="59.75" cy="48.046" r="2.529"/>
		<circle fill="#DF2729" cx="59.75" cy="42.985" r="2.529"/>
		<circle fill="#DF2729" cx="55.37" cy="50.589" r="2.529"/>
		<circle fill="#DF2729" cx="55.37" cy="45.542" r="2.529"/>
		<circle fill="#DF2729" cx="50.99" cy="48.072" r="2.529"/>
	</g>
	<g>
		<circle fill="#009967" cx="72.89" cy="25.289" r="2.529"/>
		<circle fill="#009967" cx="68.509" cy="22.76" r="2.529"/>
		<circle fill="#009967" cx="64.128" cy="20.23" r="2.529"/>
		<circle fill="#009967" cx="59.748" cy="17.701" r="2.529"/>
		<circle fill="#009967" cx="55.367" cy="15.172" r="2.529"/>
		<circle fill="#009967" cx="50.986" cy="12.642" r="2.529"/>
		<circle fill="#009967" cx="46.605" cy="10.113" r="2.529"/>
		<circle fill="#009967" cx="68.511" cy="27.819" r="2.529"/>
		<circle fill="#009967" cx="64.132" cy="25.29" r="2.529"/>
		<circle fill="#009967" cx="59.752" cy="22.762" r="2.529"/>
		<circle fill="#009967" cx="55.372" cy="20.233" r="2.529"/>
		<circle fill="#009967" cx="50.993" cy="17.704" r="2.529"/>
		<circle fill="#009967" cx="46.613" cy="15.176" r="2.529"/>
		<circle fill="#009967" cx="64.132" cy="30.349" r="2.529"/>
		<circle fill="#009967" cx="59.754" cy="27.821" r="2.529"/>
		<circle fill="#009967" cx="55.376" cy="25.293" r="2.529"/>
		<circle fill="#009967" cx="50.997" cy="22.765" r="2.529"/>
		<circle fill="#009967" cx="46.619" cy="20.237" r="2.529"/>
		<circle fill="#009967" cx="59.755" cy="32.879" r="2.529"/>
		<circle fill="#009967" cx="55.379" cy="30.353" r="2.529"/>
		<circle fill="#009967" cx="51.003" cy="27.826" r="2.529"/>
		<circle fill="#009967" cx="46.627" cy="25.3" r="2.529"/>
		<circle fill="#009967" cx="55.368" cy="35.404" r="2.529"/>
		<circle fill="#009967" cx="50.986" cy="32.874" r="2.529"/>
		<circle fill="#009967" cx="46.603" cy="30.344" r="2.529"/>
		<circle fill="#009967" cx="50.999" cy="37.94" r="2.529"/>
		<circle fill="#009967" cx="46.627" cy="35.416" r="2.529"/>
		<circle fill="#009967" cx="46.628" cy="40.474" r="2.529"/>
	</g>
	<g>
		<circle fill="#F6B518" cx="37.848" cy="10.117" r="2.529"/>
		<circle fill="#F6B518" cx="33.467" cy="12.646" r="2.529"/>
		<circle fill="#F6B518" cx="29.086" cy="15.176" r="2.529"/>
		<circle fill="#F6B518" cx="24.705" cy="17.705" r="2.529"/>
		<circle fill="#F6B518" cx="20.324" cy="20.234" r="2.529"/>
		<circle fill="#F6B518" cx="15.943" cy="22.764" r="2.529"/>
		<circle fill="#F6B518" cx="11.562" cy="25.293" r="2.529"/>
		<circle fill="#F6B518" cx="37.849" cy="15.174" r="2.529"/>
		<circle fill="#F6B518" cx="33.47" cy="17.703" r="2.529"/>
		<circle fill="#F6B518" cx="29.09" cy="20.231" r="2.529"/>
		<circle fill="#F6B518" cx="24.71" cy="22.76" r="2.529"/>
		<circle fill="#F6B518" cx="20.331" cy="25.288" r="2.529"/>
		<circle fill="#F6B518" cx="15.951" cy="27.817" r="2.529"/>
		<circle fill="#F6B518" cx="37.85" cy="20.231" r="2.529"/>
		<circle fill="#F6B518" cx="33.472" cy="22.759" r="2.529"/>
		<circle fill="#F6B518" cx="29.094" cy="25.287" r="2.529"/>
		<circle fill="#F6B518" cx="24.715" cy="27.815" r="2.529"/>
		<circle fill="#F6B518" cx="20.337" cy="30.343" r="2.529"/>
		<circle fill="#F6B518" cx="37.853" cy="25.288" r="2.529"/>
		<circle fill="#F6B518" cx="33.477" cy="27.814" r="2.529"/>
		<circle fill="#F6B518" cx="29.102" cy="30.34" r="2.529"/>
		<circle fill="#F6B518" cx="24.726" cy="32.867" r="2.529"/>
		<circle fill="#F6B518" cx="37.847" cy="30.349" r="2.529"/>
		<circle fill="#F6B518" cx="33.464" cy="32.879" r="2.529"/>
		<circle fill="#F6B518" cx="29.082" cy="35.41" r="2.529"/>
		<circle fill="#F6B518" cx="37.858" cy="35.401" r="2.529"/>
		<circle fill="#F6B518" cx="33.486" cy="37.925" r="2.529"/>
		<circle fill="#F6B518" cx="37.867" cy="40.453" r="2.529"/>
	</g>
	<g>
		<circle fill="#72C8EF" cx="72.89" cy="70.791" r="2.529"/>
		<circle fill="#72C8EF" cx="68.509" cy="73.32" r="2.529"/>
		<circle fill="#72C8EF" cx="64.128" cy="75.849" r="2.529"/>
		<circle fill="#72C8EF" cx="59.748" cy="78.379" r="2.529"/>
		<circle fill="#72C8EF" cx="55.367" cy="80.908" r="2.529"/>
		<circle fill="#72C8EF" cx="50.986" cy="83.437" r="2.529"/>
		<circle fill="#72C8EF" cx="46.605" cy="85.967" r="2.529"/>
		<circle fill="#72C8EF" cx="68.511" cy="68.261" r="2.529"/>
		<circle fill="#72C8EF" cx="64.132" cy="70.789" r="2.529"/>
		<circle fill="#72C8EF" cx="59.752" cy="73.318" r="2.529"/>
		<circle fill="#72C8EF" cx="55.372" cy="75.847" r="2.529"/>
		<circle fill="#72C8EF" cx="50.993" cy="78.375" r="2.529"/>
		<circle fill="#72C8EF" cx="46.613" cy="80.904" r="2.529"/>
		<circle fill="#72C8EF" cx="64.132" cy="65.731" r="2.529"/>
		<circle fill="#72C8EF" cx="59.754" cy="68.259" r="2.529"/>
		<circle fill="#72C8EF" cx="55.376" cy="70.787" r="2.529"/>
		<circle fill="#72C8EF" cx="50.997" cy="73.315" r="2.529"/>
		<circle fill="#72C8EF" cx="46.619" cy="75.842" r="2.529"/>
		<circle fill="#72C8EF" cx="59.755" cy="63.201" r="2.529"/>
		<circle fill="#72C8EF" cx="55.379" cy="65.727" r="2.529"/>
		<circle fill="#72C8EF" cx="51.003" cy="68.253" r="2.529"/>
		<circle fill="#72C8EF" cx="46.627" cy="70.78" r="2.529"/>
		<circle fill="#72C8EF" cx="55.368" cy="60.675" r="2.529"/>
		<circle fill="#72C8EF" cx="50.986" cy="63.205" r="2.529"/>
		<circle fill="#72C8EF" cx="46.603" cy="65.736" r="2.529"/>
		<circle fill="#72C8EF" cx="50.999" cy="58.14" r="2.529"/>
		<circle fill="#72C8EF" cx="46.627" cy="60.664" r="2.529"/>
		<circle fill="#72C8EF" cx="46.628" cy="55.605" r="2.529"/>
	</g>
	<g>
		<circle fill="#293C8F" cx="37.848" cy="85.963" r="2.529"/>
		<circle fill="#293C8F" cx="33.467" cy="83.433" r="2.529"/>
		<circle fill="#293C8F" cx="29.086" cy="80.904" r="2.529"/>
		<circle fill="#293C8F" cx="24.705" cy="78.375" r="2.529"/>
		<circle fill="#293C8F" cx="20.324" cy="75.845" r="2.529"/>
		<circle fill="#293C8F" cx="15.943" cy="73.316" r="2.529"/>
		<circle fill="#293C8F" cx="11.562" cy="70.787" r="2.529"/>
		<circle fill="#293C8F" cx="37.849" cy="80.906" r="2.529"/>
		<circle fill="#293C8F" cx="33.47" cy="78.377" r="2.529"/>
		<circle fill="#293C8F" cx="29.09" cy="75.848" r="2.529"/>
		<circle fill="#293C8F" cx="24.71" cy="73.32" r="2.529"/>
		<circle fill="#293C8F" cx="20.331" cy="70.791" r="2.529"/>
		<circle fill="#293C8F" cx="15.951" cy="68.263" r="2.529"/>
		<circle fill="#293C8F" cx="37.85" cy="75.848" r="2.529"/>
		<circle fill="#293C8F" cx="33.472" cy="73.321" r="2.529"/>
		<circle fill="#293C8F" cx="29.094" cy="70.793" r="2.529"/>
		<circle fill="#293C8F" cx="24.715" cy="68.265" r="2.529"/>
		<circle fill="#293C8F" cx="20.337" cy="65.737" r="2.529"/>
		<circle fill="#293C8F" cx="37.853" cy="70.792" r="2.529"/>
		<circle fill="#293C8F" cx="33.477" cy="68.266" r="2.529"/>
		<circle fill="#293C8F" cx="29.102" cy="65.739" r="2.529"/>
		<circle fill="#293C8F" cx="24.726" cy="63.213" r="2.529"/>
		<circle fill="#293C8F" cx="37.847" cy="65.73" r="2.529"/>
		<circle fill="#293C8F" cx="33.464" cy="63.2" r="2.529"/>
		<circle fill="#293C8F" cx="29.082" cy="60.67" r="2.529"/>
		<circle fill="#293C8F" cx="37.858" cy="60.679" r="2.529"/>
		<circle fill="#293C8F" cx="33.486" cy="58.155" r="2.529"/>
		<circle fill="#293C8F" cx="37.867" cy="55.626" r="2.529"/>
	</g>
	<g>
		<circle fill="#1B1C1C" cx="42.229" cy="2.529" r="2.529"/>
		<circle fill="#1B1C1C" cx="42.229" cy="7.587" r="2.529"/>
		<circle fill="#1B1C1C" cx="42.229" cy="12.645" r="2.529"/>
		<circle fill="#1B1C1C" cx="42.229" cy="17.703" r="2.529"/>
		<circle fill="#1B1C1C" cx="42.229" cy="22.761" r="2.529"/>
		<circle fill="#1B1C1C" cx="42.229" cy="27.819" r="2.529"/>
		<circle fill="#1B1C1C" cx="42.229" cy="32.877" r="2.529"/>
		<circle fill="#1B1C1C" cx="42.229" cy="37.935" r="2.529"/>
		<circle fill="#1B1C1C" cx="42.229" cy="42.993" r="2.529"/>
		<circle fill="#1B1C1C" cx="42.229" cy="48.051" r="2.529"/>
		<circle fill="#1B1C1C" cx="42.229" cy="53.109" r="2.529"/>
		<circle fill="#1B1C1C" cx="42.229" cy="58.167" r="2.529"/>
		<circle fill="#1B1C1C" cx="42.229" cy="63.225" r="2.529"/>
		<circle fill="#1B1C1C" cx="42.229" cy="68.283" r="2.529"/>
		<circle fill="#1B1C1C" cx="42.229" cy="73.341" r="2.529"/>
		<circle fill="#1B1C1C" cx="42.229" cy="78.399" r="2.529"/>
		<circle fill="#1B1C1C" cx="42.229" cy="83.456" r="2.529"/>
		<circle fill="#1B1C1C" cx="42.229" cy="88.514" r="2.529"/>
		<circle fill="#1B1C1C" cx="42.229" cy="93.572" r="2.529"/>
		<circle fill="#1B1C1C" cx="2.806" cy="25.29" r="2.529"/>
		<circle fill="#1B1C1C" cx="2.806" cy="30.348" r="2.529"/>
		<circle fill="#1B1C1C" cx="2.806" cy="35.406" r="2.529"/>
		<circle fill="#1B1C1C" cx="2.806" cy="40.464" r="2.529"/>
		<circle fill="#1B1C1C" cx="2.806" cy="45.522" r="2.529"/>
		<circle fill="#1B1C1C" cx="2.806" cy="50.58" r="2.529"/>
		<circle fill="#1B1C1C" cx="2.806" cy="55.638" r="2.529"/>
		<circle fill="#1B1C1C" cx="2.806" cy="60.696" r="2.529"/>
		<circle fill="#1B1C1C" cx="2.806" cy="65.754" r="2.529"/>
		<circle fill="#1B1C1C" cx="7.187" cy="27.819" r="2.529"/>
		<circle fill="#1B1C1C" cx="11.567" cy="30.348" r="2.529"/>
		<circle fill="#1B1C1C" cx="15.947" cy="32.877" r="2.529"/>
		<circle fill="#1B1C1C" cx="20.328" cy="35.406" r="2.529"/>
		<circle fill="#1B1C1C" cx="24.708" cy="37.935" r="2.529"/>
		<circle fill="#1B1C1C" cx="29.088" cy="40.464" r="2.529"/>
		<circle fill="#1B1C1C" cx="33.469" cy="42.993" r="2.529"/>
		<circle fill="#1B1C1C" cx="37.849" cy="45.522" r="2.529"/>
		<circle fill="#1B1C1C" cx="46.61" cy="50.58" r="2.529"/>
		<circle fill="#1B1C1C" cx="50.99" cy="53.109" r="2.529"/>
		<circle fill="#1B1C1C" cx="55.37" cy="55.638" r="2.529"/>
		<circle fill="#1B1C1C" cx="59.75" cy="58.167" r="2.529"/>
		<circle fill="#1B1C1C" cx="64.131" cy="60.696" r="2.529"/>
		<circle fill="#1B1C1C" cx="68.511" cy="63.225" r="2.529"/>
		<circle fill="#1B1C1C" cx="72.891" cy="65.754" r="2.529"/>
		<circle fill="#1B1C1C" cx="77.272" cy="68.283" r="2.529"/>
		<circle fill="#1B1C1C" cx="81.652" cy="70.812" r="2.529"/>
		<circle fill="#1B1C1C" cx="2.806" cy="70.812" r="2.529"/>
		<circle fill="#1B1C1C" cx="7.187" cy="68.283" r="2.529"/>
		<circle fill="#1B1C1C" cx="11.567" cy="65.754" r="2.529"/>
		<circle fill="#1B1C1C" cx="15.947" cy="63.225" r="2.529"/>
		<circle fill="#1B1C1C" cx="20.328" cy="60.696" r="2.529"/>
		<circle fill="#1B1C1C" cx="24.708" cy="58.167" r="2.529"/>
		<circle fill="#1B1C1C" cx="29.088" cy="55.638" r="2.529"/>
		<circle fill="#1B1C1C" cx="33.469" cy="53.109" r="2.529"/>
		<circle fill="#1B1C1C" cx="37.849" cy="50.58" r="2.529"/>
		<circle fill="#1B1C1C" cx="46.61" cy="45.522" r="2.529"/>
		<circle fill="#1B1C1C" cx="50.99" cy="42.993" r="2.529"/>
		<circle fill="#1B1C1C" cx="55.37" cy="40.464" r="2.529"/>
		<circle fill="#1B1C1C" cx="59.75" cy="37.935" r="2.529"/>
		<circle fill="#1B1C1C" cx="64.131" cy="35.406" r="2.529"/>
		<circle fill="#1B1C1C" cx="68.511" cy="32.877" r="2.529"/>
		<circle fill="#1B1C1C" cx="72.891" cy="30.348" r="2.529"/>
		<circle fill="#1B1C1C" cx="77.272" cy="27.819" r="2.529"/>
		<circle fill="#1B1C1C" cx="81.652" cy="25.29" r="2.529"/>
		<circle fill="#1B1C1C" cx="81.652" cy="30.349" r="2.529"/>
		<circle fill="#1B1C1C" cx="81.652" cy="35.407" r="2.529"/>
		<circle fill="#1B1C1C" cx="81.652" cy="40.466" r="2.529"/>
		<circle fill="#1B1C1C" cx="81.652" cy="45.525" r="2.529"/>
		<circle fill="#1B1C1C" cx="81.652" cy="50.584" r="2.529"/>
		<circle fill="#1B1C1C" cx="81.652" cy="55.642" r="2.529"/>
		<circle fill="#1B1C1C" cx="81.652" cy="60.701" r="2.529"/>
		<circle fill="#1B1C1C" cx="81.652" cy="65.76" r="2.529"/>
		<circle fill="#1B1C1C" cx="7.184" cy="73.342" r="2.529"/>
		<circle fill="#1B1C1C" cx="11.564" cy="75.871" r="2.529"/>
		<circle fill="#1B1C1C" cx="15.945" cy="78.4" r="2.529"/>
		<circle fill="#1B1C1C" cx="20.325" cy="80.929" r="2.529"/>
		<circle fill="#1B1C1C" cx="24.705" cy="83.458" r="2.529"/>
		<circle fill="#1B1C1C" cx="29.086" cy="85.987" r="2.529"/>
		<circle fill="#1B1C1C" cx="33.466" cy="88.516" r="2.529"/>
		<circle fill="#1B1C1C" cx="37.846" cy="91.045" r="2.529"/>
		<circle fill="#1B1C1C" cx="46.608" cy="5.06" r="2.529"/>
		<circle fill="#1B1C1C" cx="50.989" cy="7.589" r="2.529"/>
		<circle fill="#1B1C1C" cx="55.37" cy="10.119" r="2.529"/>
		<circle fill="#1B1C1C" cx="59.75" cy="12.648" r="2.529"/>
		<circle fill="#1B1C1C" cx="64.131" cy="15.178" r="2.529"/>
		<circle fill="#1B1C1C" cx="68.512" cy="17.707" r="2.529"/>
		<circle fill="#1B1C1C" cx="72.893" cy="20.236" r="2.529"/>
		<circle fill="#1B1C1C" cx="77.274" cy="22.766" r="2.529"/>
		<circle fill="#1B1C1C" cx="46.607" cy="91.048" r="2.529"/>
		<circle fill="#1B1C1C" cx="50.987" cy="88.519" r="2.529"/>
		<circle fill="#1B1C1C" cx="55.368" cy="85.99" r="2.529"/>
		<circle fill="#1B1C1C" cx="59.748" cy="83.461" r="2.529"/>
		<circle fill="#1B1C1C" cx="64.128" cy="80.932" r="2.529"/>
		<circle fill="#1B1C1C" cx="68.508" cy="78.403" r="2.529"/>
		<circle fill="#1B1C1C" cx="72.889" cy="75.874" r="2.529"/>
		<circle fill="#1B1C1C" cx="77.269" cy="73.345" r="2.529"/>
		<circle fill="#1B1C1C" cx="7.185" cy="22.765" r="2.529"/>
		<circle fill="#1B1C1C" cx="11.566" cy="20.236" r="2.529"/>
		<circle fill="#1B1C1C" cx="15.947" cy="17.707" r="2.529"/>
		<circle fill="#1B1C1C" cx="20.328" cy="15.177" r="2.529"/>
		<circle fill="#1B1C1C" cx="24.709" cy="12.648" r="2.529"/>
		<circle fill="#1B1C1C" cx="29.09" cy="10.118" r="2.529"/>
		<circle fill="#1B1C1C" cx="33.471" cy="7.589" r="2.529"/>
		<circle fill="#1B1C1C" cx="37.851" cy="5.06" r="2.529"/>
	</g>
	<g>
		<circle fill="#1B1C1C" cx="42.229" cy="2.529" r="2.529"/>
		<circle fill="#1B1C1C" cx="42.229" cy="7.587" r="2.529"/>
		<circle fill="#1B1C1C" cx="42.229" cy="12.645" r="2.529"/>
		<circle fill="#1B1C1C" cx="42.229" cy="17.703" r="2.529"/>
		<circle fill="#1B1C1C" cx="42.229" cy="22.761" r="2.529"/>
		<circle fill="#1B1C1C" cx="42.229" cy="27.819" r="2.529"/>
		<circle fill="#1B1C1C" cx="42.229" cy="32.877" r="2.529"/>
		<circle fill="#1B1C1C" cx="42.229" cy="37.935" r="2.529"/>
		<circle fill="#1B1C1C" cx="42.229" cy="42.993" r="2.529"/>
		<circle fill="#1B1C1C" cx="42.229" cy="48.051" r="2.529"/>
		<circle fill="#1B1C1C" cx="42.229" cy="53.109" r="2.529"/>
		<circle fill="#1B1C1C" cx="42.229" cy="58.167" r="2.529"/>
		<circle fill="#1B1C1C" cx="42.229" cy="63.225" r="2.529"/>
		<circle fill="#1B1C1C" cx="42.229" cy="68.283" r="2.529"/>
		<circle fill="#1B1C1C" cx="42.229" cy="73.341" r="2.529"/>
		<circle fill="#1B1C1C" cx="42.229" cy="78.399" r="2.529"/>
		<circle fill="#1B1C1C" cx="42.229" cy="83.456" r="2.529"/>
		<circle fill="#1B1C1C" cx="42.229" cy="88.514" r="2.529"/>
		<circle fill="#1B1C1C" cx="42.229" cy="93.572" r="2.529"/>
		<circle fill="#1B1C1C" cx="2.806" cy="25.29" r="2.529"/>
		<circle fill="#1B1C1C" cx="2.806" cy="30.348" r="2.529"/>
		<circle fill="#1B1C1C" cx="2.806" cy="35.406" r="2.529"/>
		<circle fill="#1B1C1C" cx="2.806" cy="40.464" r="2.529"/>
		<circle fill="#1B1C1C" cx="2.806" cy="45.522" r="2.529"/>
		<circle fill="#1B1C1C" cx="2.806" cy="50.58" r="2.529"/>
		<circle fill="#1B1C1C" cx="2.806" cy="55.638" r="2.529"/>
		<circle fill="#1B1C1C" cx="2.806" cy="60.696" r="2.529"/>
		<circle fill="#1B1C1C" cx="2.806" cy="65.754" r="2.529"/>
		<circle fill="#1B1C1C" cx="7.187" cy="27.819" r="2.529"/>
		<circle fill="#1B1C1C" cx="11.567" cy="30.348" r="2.529"/>
		<circle fill="#1B1C1C" cx="15.947" cy="32.877" r="2.529"/>
		<circle fill="#1B1C1C" cx="20.328" cy="35.406" r="2.529"/>
		<circle fill="#1B1C1C" cx="24.708" cy="37.935" r="2.529"/>
		<circle fill="#1B1C1C" cx="29.088" cy="40.464" r="2.529"/>
		<circle fill="#1B1C1C" cx="33.469" cy="42.993" r="2.529"/>
		<circle fill="#1B1C1C" cx="37.849" cy="45.522" r="2.529"/>
		<circle fill="#1B1C1C" cx="46.61" cy="50.58" r="2.529"/>
		<circle fill="#1B1C1C" cx="50.99" cy="53.109" r="2.529"/>
		<circle fill="#1B1C1C" cx="55.37" cy="55.638" r="2.529"/>
		<circle fill="#1B1C1C" cx="59.75" cy="58.167" r="2.529"/>
		<circle fill="#1B1C1C" cx="64.131" cy="60.696" r="2.529"/>
		<circle fill="#1B1C1C" cx="68.511" cy="63.225" r="2.529"/>
		<circle fill="#1B1C1C" cx="72.891" cy="65.754" r="2.529"/>
		<circle fill="#1B1C1C" cx="77.272" cy="68.283" r="2.529"/>
		<circle fill="#1B1C1C" cx="81.652" cy="70.812" r="2.529"/>
		<circle fill="#1B1C1C" cx="2.806" cy="70.812" r="2.529"/>
		<circle fill="#1B1C1C" cx="7.187" cy="68.283" r="2.529"/>
		<circle fill="#1B1C1C" cx="11.567" cy="65.754" r="2.529"/>
		<circle fill="#1B1C1C" cx="15.947" cy="63.225" r="2.529"/>
		<circle fill="#1B1C1C" cx="20.328" cy="60.696" r="2.529"/>
		<circle fill="#1B1C1C" cx="24.708" cy="58.167" r="2.529"/>
		<circle fill="#1B1C1C" cx="29.088" cy="55.638" r="2.529"/>
		<circle fill="#1B1C1C" cx="33.469" cy="53.109" r="2.529"/>
		<circle fill="#1B1C1C" cx="37.849" cy="50.58" r="2.529"/>
		<circle fill="#1B1C1C" cx="46.61" cy="45.522" r="2.529"/>
		<circle fill="#1B1C1C" cx="50.99" cy="42.993" r="2.529"/>
		<circle fill="#1B1C1C" cx="55.37" cy="40.464" r="2.529"/>
		<circle fill="#1B1C1C" cx="59.75" cy="37.935" r="2.529"/>
		<circle fill="#1B1C1C" cx="64.131" cy="35.406" r="2.529"/>
		<circle fill="#1B1C1C" cx="68.511" cy="32.877" r="2.529"/>
		<circle fill="#1B1C1C" cx="72.891" cy="30.348" r="2.529"/>
		<circle fill="#1B1C1C" cx="77.272" cy="27.819" r="2.529"/>
		<circle fill="#1B1C1C" cx="81.652" cy="25.29" r="2.529"/>
		<circle fill="#1B1C1C" cx="81.652" cy="30.349" r="2.529"/>
		<circle fill="#1B1C1C" cx="81.652" cy="35.407" r="2.529"/>
		<circle fill="#1B1C1C" cx="81.652" cy="40.466" r="2.529"/>
		<circle fill="#1B1C1C" cx="81.652" cy="45.525" r="2.529"/>
		<circle fill="#1B1C1C" cx="81.652" cy="50.584" r="2.529"/>
		<circle fill="#1B1C1C" cx="81.652" cy="55.642" r="2.529"/>
		<circle fill="#1B1C1C" cx="81.652" cy="60.701" r="2.529"/>
		<circle fill="#1B1C1C" cx="81.652" cy="65.76" r="2.529"/>
		<circle fill="#1B1C1C" cx="7.184" cy="73.342" r="2.529"/>
		<circle fill="#1B1C1C" cx="11.564" cy="75.871" r="2.529"/>
		<circle fill="#1B1C1C" cx="15.945" cy="78.4" r="2.529"/>
		<circle fill="#1B1C1C" cx="20.325" cy="80.929" r="2.529"/>
		<circle fill="#1B1C1C" cx="24.705" cy="83.458" r="2.529"/>
		<circle fill="#1B1C1C" cx="29.086" cy="85.987" r="2.529"/>
		<circle fill="#1B1C1C" cx="33.466" cy="88.516" r="2.529"/>
		<circle fill="#1B1C1C" cx="37.846" cy="91.045" r="2.529"/>
		<circle fill="#1B1C1C" cx="46.608" cy="5.06" r="2.529"/>
		<circle fill="#1B1C1C" cx="50.989" cy="7.589" r="2.529"/>
		<circle fill="#1B1C1C" cx="55.37" cy="10.119" r="2.529"/>
		<circle fill="#1B1C1C" cx="59.75" cy="12.648" r="2.529"/>
		<circle fill="#1B1C1C" cx="64.131" cy="15.178" r="2.529"/>
		<circle fill="#1B1C1C" cx="68.512" cy="17.707" r="2.529"/>
		<circle fill="#1B1C1C" cx="72.893" cy="20.236" r="2.529"/>
		<circle fill="#1B1C1C" cx="77.274" cy="22.766" r="2.529"/>
		<circle fill="#1B1C1C" cx="46.607" cy="91.048" r="2.529"/>
		<circle fill="#1B1C1C" cx="50.987" cy="88.519" r="2.529"/>
		<circle fill="#1B1C1C" cx="55.368" cy="85.99" r="2.529"/>
		<circle fill="#1B1C1C" cx="59.748" cy="83.461" r="2.529"/>
		<circle fill="#1B1C1C" cx="64.128" cy="80.932" r="2.529"/>
		<circle fill="#1B1C1C" cx="68.508" cy="78.403" r="2.529"/>
		<circle fill="#1B1C1C" cx="72.889" cy="75.874" r="2.529"/>
		<circle fill="#1B1C1C" cx="77.269" cy="73.345" r="2.529"/>
		<circle fill="#1B1C1C" cx="7.185" cy="22.765" r="2.529"/>
		<circle fill="#1B1C1C" cx="11.566" cy="20.236" r="2.529"/>
		<circle fill="#1B1C1C" cx="15.947" cy="17.707" r="2.529"/>
		<circle fill="#1B1C1C" cx="20.328" cy="15.177" r="2.529"/>
		<circle fill="#1B1C1C" cx="24.709" cy="12.648" r="2.529"/>
		<circle fill="#1B1C1C" cx="29.09" cy="10.118" r="2.529"/>
		<circle fill="#1B1C1C" cx="33.471" cy="7.589" r="2.529"/>
		<circle fill="#1B1C1C" cx="37.851" cy="5.06" r="2.529"/>
	</g>
</g>
</svg>
