<?xml version="1.0" encoding="utf-8"?>
<!-- Generator: Adobe Illustrator 22.0.1, SVG Export Plug-In . SVG Version: 6.00 Build 0)  -->
<svg version="1.1" id="layout" xmlns="http://www.w3.org/2000/svg" xmlns:xlink="http://www.w3.org/1999/xlink" x="0px" y="0px"
	 viewBox="0 0 82.852 137.267" enable-background="new 0 0 82.852 137.267" xml:space="preserve">
<g>
	<g>
		<circle fill="#EB6626" cx="7.331" cy="32.241" r="2.48"/>
		<circle fill="#EB6626" cx="7.331" cy="37.201" r="2.48"/>
		<circle fill="#EB6626" cx="7.331" cy="42.162" r="2.48"/>
		<circle fill="#EB6626" cx="7.331" cy="47.123" r="2.48"/>
		<circle fill="#EB6626" cx="7.331" cy="52.083" r="2.48"/>
		<circle fill="#EB6626" cx="7.331" cy="57.044" r="2.48"/>
		<circle fill="#EB6626" cx="7.331" cy="62.005" r="2.48"/>
		<circle fill="#EB6626" cx="11.627" cy="34.719" r="2.48"/>
		<circle fill="#EB6626" cx="11.627" cy="39.678" r="2.48"/>
		<circle fill="#EB6626" cx="11.627" cy="44.638" r="2.48"/>
		<circle fill="#EB6626" cx="11.627" cy="49.597" r="2.48"/>
		<circle fill="#EB6626" cx="11.627" cy="54.556" r="2.48"/>
		<circle fill="#EB6626" cx="11.627" cy="59.515" r="2.48"/>
		<circle fill="#EB6626" cx="15.922" cy="37.198" r="2.48"/>
		<circle fill="#EB6626" cx="15.922" cy="42.155" r="2.48"/>
		<circle fill="#EB6626" cx="15.922" cy="47.113" r="2.48"/>
		<circle fill="#EB6626" cx="15.922" cy="52.071" r="2.48"/>
		<circle fill="#EB6626" cx="15.922" cy="57.029" r="2.48"/>
		<circle fill="#EB6626" cx="20.218" cy="39.675" r="2.48"/>
		<circle fill="#EB6626" cx="20.218" cy="44.63" r="2.48"/>
		<circle fill="#EB6626" cx="20.218" cy="49.584" r="2.48"/>
		<circle fill="#EB6626" cx="20.218" cy="54.539" r="2.48"/>
		<circle fill="#EB6626" cx="24.513" cy="42.162" r="2.48"/>
		<circle fill="#EB6626" cx="24.513" cy="47.124" r="2.48"/>
		<circle fill="#EB6626" cx="24.513" cy="52.086" r="2.48"/>
		<circle fill="#EB6626" cx="28.808" cy="44.63" r="2.48"/>
		<circle fill="#EB6626" cx="28.808" cy="49.579" r="2.48"/>
		<circle fill="#EB6626" cx="33.104" cy="47.099" r="2.48"/>
	</g>
	<g>
		<circle fill="#DF2729" cx="76.058" cy="61.998" r="2.48"/>
		<circle fill="#DF2729" cx="76.058" cy="57.037" r="2.48"/>
		<circle fill="#DF2729" cx="76.058" cy="52.077" r="2.48"/>
		<circle fill="#DF2729" cx="76.058" cy="47.116" r="2.48"/>
		<circle fill="#DF2729" cx="76.058" cy="42.155" r="2.48"/>
		<circle fill="#DF2729" cx="76.058" cy="37.195" r="2.48"/>
		<circle fill="#DF2729" cx="76.058" cy="32.234" r="2.48"/>
		<circle fill="#DF2729" cx="71.763" cy="59.52" r="2.48"/>
		<circle fill="#DF2729" cx="71.763" cy="54.56" r="2.48"/>
		<circle fill="#DF2729" cx="71.763" cy="49.601" r="2.48"/>
		<circle fill="#DF2729" cx="71.763" cy="44.642" r="2.48"/>
		<circle fill="#DF2729" cx="71.763" cy="39.683" r="2.48"/>
		<circle fill="#DF2729" cx="71.763" cy="34.724" r="2.48"/>
		<circle fill="#DF2729" cx="67.467" cy="57.041" r="2.48"/>
		<circle fill="#DF2729" cx="67.467" cy="52.083" r="2.48"/>
		<circle fill="#DF2729" cx="67.467" cy="47.126" r="2.48"/>
		<circle fill="#DF2729" cx="67.467" cy="42.168" r="2.48"/>
		<circle fill="#DF2729" cx="67.467" cy="37.21" r="2.48"/>
		<circle fill="#DF2729" cx="63.172" cy="54.564" r="2.48"/>
		<circle fill="#DF2729" cx="63.172" cy="49.609" r="2.48"/>
		<circle fill="#DF2729" cx="63.172" cy="44.654" r="2.48"/>
		<circle fill="#DF2729" cx="63.172" cy="39.7" r="2.48"/>
		<circle fill="#DF2729" cx="58.877" cy="52.077" r="2.48"/>
		<circle fill="#DF2729" cx="58.877" cy="47.115" r="2.48"/>
		<circle fill="#DF2729" cx="58.877" cy="42.152" r="2.48"/>
		<circle fill="#DF2729" cx="54.581" cy="49.609" r="2.48"/>
		<circle fill="#DF2729" cx="54.581" cy="44.66" r="2.48"/>
		<circle fill="#DF2729" cx="50.286" cy="47.14" r="2.48"/>
	</g>
	<g>
		<circle fill="#009967" cx="71.762" cy="24.799" r="2.48"/>
		<circle fill="#009967" cx="67.466" cy="22.319" r="2.48"/>
		<circle fill="#009967" cx="63.17" cy="19.838" r="2.48"/>
		<circle fill="#009967" cx="58.874" cy="17.358" r="2.48"/>
		<circle fill="#009967" cx="54.578" cy="14.878" r="2.48"/>
		<circle fill="#009967" cx="50.281" cy="12.397" r="2.48"/>
		<circle fill="#009967" cx="45.985" cy="9.917" r="2.48"/>
		<circle fill="#009967" cx="67.468" cy="27.28" r="2.48"/>
		<circle fill="#009967" cx="63.173" cy="24.8" r="2.48"/>
		<circle fill="#009967" cx="58.878" cy="22.321" r="2.48"/>
		<circle fill="#009967" cx="54.583" cy="19.841" r="2.48"/>
		<circle fill="#009967" cx="50.288" cy="17.361" r="2.48"/>
		<circle fill="#009967" cx="45.994" cy="14.882" r="2.48"/>
		<circle fill="#009967" cx="63.174" cy="29.76" r="2.48"/>
		<circle fill="#009967" cx="58.88" cy="27.282" r="2.48"/>
		<circle fill="#009967" cx="54.586" cy="24.803" r="2.48"/>
		<circle fill="#009967" cx="50.293" cy="22.324" r="2.48"/>
		<circle fill="#009967" cx="45.999" cy="19.845" r="2.48"/>
		<circle fill="#009967" cx="58.881" cy="32.242" r="2.48"/>
		<circle fill="#009967" cx="54.59" cy="29.765" r="2.48"/>
		<circle fill="#009967" cx="50.299" cy="27.287" r="2.48"/>
		<circle fill="#009967" cx="46.008" cy="24.81" r="2.48"/>
		<circle fill="#009967" cx="54.579" cy="34.718" r="2.48"/>
		<circle fill="#009967" cx="50.281" cy="32.237" r="2.48"/>
		<circle fill="#009967" cx="45.984" cy="29.756" r="2.48"/>
		<circle fill="#009967" cx="50.294" cy="37.204" r="2.48"/>
		<circle fill="#009967" cx="46.008" cy="34.73" r="2.48"/>
		<circle fill="#009967" cx="46.008" cy="39.69" r="2.48"/>
	</g>
	<g>
		<circle fill="#F6B518" cx="37.398" cy="9.921" r="2.48"/>
		<circle fill="#F6B518" cx="33.102" cy="12.401" r="2.48"/>
		<circle fill="#F6B518" cx="28.806" cy="14.881" r="2.48"/>
		<circle fill="#F6B518" cx="24.51" cy="17.362" r="2.48"/>
		<circle fill="#F6B518" cx="20.214" cy="19.842" r="2.48"/>
		<circle fill="#F6B518" cx="15.918" cy="22.323" r="2.48"/>
		<circle fill="#F6B518" cx="11.622" cy="24.803" r="2.48"/>
		<circle fill="#F6B518" cx="37.4" cy="14.88" r="2.48"/>
		<circle fill="#F6B518" cx="33.105" cy="17.36" r="2.48"/>
		<circle fill="#F6B518" cx="28.81" cy="19.839" r="2.48"/>
		<circle fill="#F6B518" cx="24.515" cy="22.319" r="2.48"/>
		<circle fill="#F6B518" cx="20.22" cy="24.798" r="2.48"/>
		<circle fill="#F6B518" cx="15.926" cy="27.278" r="2.48"/>
		<circle fill="#F6B518" cx="37.401" cy="19.839" r="2.48"/>
		<circle fill="#F6B518" cx="33.107" cy="22.318" r="2.48"/>
		<circle fill="#F6B518" cx="28.814" cy="24.797" r="2.48"/>
		<circle fill="#F6B518" cx="24.52" cy="27.276" r="2.48"/>
		<circle fill="#F6B518" cx="20.227" cy="29.755" r="2.48"/>
		<circle fill="#F6B518" cx="37.403" cy="24.798" r="2.48"/>
		<circle fill="#F6B518" cx="33.112" cy="27.275" r="2.48"/>
		<circle fill="#F6B518" cx="28.821" cy="29.753" r="2.48"/>
		<circle fill="#F6B518" cx="24.53" cy="32.23" r="2.48"/>
		<circle fill="#F6B518" cx="37.397" cy="29.761" r="2.48"/>
		<circle fill="#F6B518" cx="33.1" cy="32.242" r="2.48"/>
		<circle fill="#F6B518" cx="28.802" cy="34.723" r="2.48"/>
		<circle fill="#F6B518" cx="37.408" cy="34.715" r="2.48"/>
		<circle fill="#F6B518" cx="33.121" cy="37.19" r="2.48"/>
		<circle fill="#F6B518" cx="37.417" cy="39.67" r="2.48"/>
	</g>
	<g>
		<circle fill="#72C8EF" cx="71.762" cy="69.419" r="2.48"/>
		<circle fill="#72C8EF" cx="67.466" cy="71.899" r="2.48"/>
		<circle fill="#72C8EF" cx="63.17" cy="74.38" r="2.48"/>
		<circle fill="#72C8EF" cx="58.874" cy="76.86" r="2.48"/>
		<circle fill="#72C8EF" cx="54.578" cy="79.34" r="2.48"/>
		<circle fill="#72C8EF" cx="50.281" cy="81.821" r="2.48"/>
		<circle fill="#72C8EF" cx="45.985" cy="84.301" r="2.48"/>
		<circle fill="#72C8EF" cx="67.468" cy="66.938" r="2.48"/>
		<circle fill="#72C8EF" cx="63.173" cy="69.418" r="2.48"/>
		<circle fill="#72C8EF" cx="58.878" cy="71.897" r="2.48"/>
		<circle fill="#72C8EF" cx="54.583" cy="74.377" r="2.48"/>
		<circle fill="#72C8EF" cx="50.288" cy="76.857" r="2.48"/>
		<circle fill="#72C8EF" cx="45.994" cy="79.336" r="2.48"/>
		<circle fill="#72C8EF" cx="63.174" cy="64.458" r="2.48"/>
		<circle fill="#72C8EF" cx="58.88" cy="66.936" r="2.48"/>
		<circle fill="#72C8EF" cx="54.586" cy="69.415" r="2.48"/>
		<circle fill="#72C8EF" cx="50.293" cy="71.894" r="2.48"/>
		<circle fill="#72C8EF" cx="45.999" cy="74.373" r="2.48"/>
		<circle fill="#72C8EF" cx="58.881" cy="61.976" r="2.48"/>
		<circle fill="#72C8EF" cx="54.59" cy="64.453" r="2.48"/>
		<circle fill="#72C8EF" cx="50.299" cy="66.931" r="2.48"/>
		<circle fill="#72C8EF" cx="46.008" cy="69.408" r="2.48"/>
		<circle fill="#72C8EF" cx="54.579" cy="59.5" r="2.48"/>
		<circle fill="#72C8EF" cx="50.281" cy="61.981" r="2.48"/>
		<circle fill="#72C8EF" cx="45.984" cy="64.462" r="2.48"/>
		<circle fill="#72C8EF" cx="50.294" cy="57.014" r="2.48"/>
		<circle fill="#72C8EF" cx="46.008" cy="59.488" r="2.48"/>
		<circle fill="#72C8EF" cx="46.008" cy="54.528" r="2.48"/>
	</g>
	<g>
		<circle fill="#293C8F" cx="37.398" cy="84.297" r="2.48"/>
		<circle fill="#293C8F" cx="33.102" cy="81.817" r="2.48"/>
		<circle fill="#293C8F" cx="28.806" cy="79.337" r="2.48"/>
		<circle fill="#293C8F" cx="24.51" cy="76.856" r="2.48"/>
		<circle fill="#293C8F" cx="20.214" cy="74.376" r="2.48"/>
		<circle fill="#293C8F" cx="15.918" cy="71.896" r="2.48"/>
		<circle fill="#293C8F" cx="11.622" cy="69.415" r="2.48"/>
		<circle fill="#293C8F" cx="37.4" cy="79.338" r="2.48"/>
		<circle fill="#293C8F" cx="33.105" cy="76.858" r="2.48"/>
		<circle fill="#293C8F" cx="28.81" cy="74.379" r="2.48"/>
		<circle fill="#293C8F" cx="24.515" cy="71.899" r="2.48"/>
		<circle fill="#293C8F" cx="20.22" cy="69.42" r="2.48"/>
		<circle fill="#293C8F" cx="15.926" cy="66.94" r="2.48"/>
		<circle fill="#293C8F" cx="37.401" cy="74.379" r="2.48"/>
		<circle fill="#293C8F" cx="33.107" cy="71.9" r="2.48"/>
		<circle fill="#293C8F" cx="28.814" cy="69.421" r="2.48"/>
		<circle fill="#293C8F" cx="24.52" cy="66.942" r="2.48"/>
		<circle fill="#293C8F" cx="20.227" cy="64.463" r="2.48"/>
		<circle fill="#293C8F" cx="37.403" cy="69.42" r="2.48"/>
		<circle fill="#293C8F" cx="33.112" cy="66.943" r="2.48"/>
		<circle fill="#293C8F" cx="28.821" cy="64.465" r="2.48"/>
		<circle fill="#293C8F" cx="24.53" cy="61.988" r="2.48"/>
		<circle fill="#293C8F" cx="37.397" cy="64.457" r="2.48"/>
		<circle fill="#293C8F" cx="33.1" cy="61.976" r="2.48"/>
		<circle fill="#293C8F" cx="28.802" cy="59.495" r="2.48"/>
		<circle fill="#293C8F" cx="37.408" cy="59.503" r="2.48"/>
		<circle fill="#293C8F" cx="33.121" cy="57.028" r="2.48"/>
		<circle fill="#293C8F" cx="37.417" cy="54.549" r="2.48"/>
	</g>
	<g>
		<circle fill="#1B1C1C" cx="41.695" cy="2.48" r="2.48"/>
		<circle fill="#1B1C1C" cx="41.695" cy="7.44" r="2.48"/>
		<circle fill="#1B1C1C" cx="41.695" cy="12.4" r="2.48"/>
		<circle fill="#1B1C1C" cx="41.695" cy="17.36" r="2.48"/>
		<circle fill="#1B1C1C" cx="41.695" cy="22.32" r="2.48"/>
		<circle fill="#1B1C1C" cx="41.695" cy="27.28" r="2.48"/>
		<circle fill="#1B1C1C" cx="41.695" cy="32.24" r="2.48"/>
		<circle fill="#1B1C1C" cx="41.695" cy="37.2" r="2.48"/>
		<circle fill="#1B1C1C" cx="41.695" cy="42.16" r="2.48"/>
		<circle fill="#1B1C1C" cx="41.695" cy="47.12" r="2.48"/>
		<circle fill="#1B1C1C" cx="41.695" cy="52.08" r="2.48"/>
		<circle fill="#1B1C1C" cx="41.695" cy="57.04" r="2.48"/>
		<circle fill="#1B1C1C" cx="41.695" cy="62" r="2.48"/>
		<circle fill="#1B1C1C" cx="41.695" cy="66.96" r="2.48"/>
		<circle fill="#1B1C1C" cx="41.695" cy="71.92" r="2.48"/>
		<circle fill="#1B1C1C" cx="41.695" cy="76.88" r="2.48"/>
		<circle fill="#1B1C1C" cx="41.695" cy="81.84" r="2.48"/>
		<circle fill="#1B1C1C" cx="41.695" cy="86.799" r="2.48"/>
		<circle fill="#1B1C1C" cx="41.695" cy="91.759" r="2.48"/>
		<circle fill="#1B1C1C" cx="3.036" cy="24.8" r="2.48"/>
		<circle fill="#1B1C1C" cx="3.036" cy="29.76" r="2.48"/>
		<circle fill="#1B1C1C" cx="3.036" cy="34.72" r="2.48"/>
		<circle fill="#1B1C1C" cx="3.036" cy="39.68" r="2.48"/>
		<circle fill="#1B1C1C" cx="3.036" cy="44.64" r="2.48"/>
		<circle fill="#1B1C1C" cx="3.036" cy="49.6" r="2.48"/>
		<circle fill="#1B1C1C" cx="3.036" cy="54.56" r="2.48"/>
		<circle fill="#1B1C1C" cx="3.036" cy="59.52" r="2.48"/>
		<circle fill="#1B1C1C" cx="3.036" cy="64.48" r="2.48"/>
		<circle fill="#1B1C1C" cx="7.331" cy="27.28" r="2.48"/>
		<circle fill="#1B1C1C" cx="11.627" cy="29.76" r="2.48"/>
		<circle fill="#1B1C1C" cx="15.922" cy="32.24" r="2.48"/>
		<circle fill="#1B1C1C" cx="20.218" cy="34.72" r="2.48"/>
		<circle fill="#1B1C1C" cx="24.513" cy="37.2" r="2.48"/>
		<circle fill="#1B1C1C" cx="28.808" cy="39.68" r="2.48"/>
		<circle fill="#1B1C1C" cx="33.104" cy="42.16" r="2.48"/>
		<circle fill="#1B1C1C" cx="37.399" cy="44.64" r="2.48"/>
		<circle fill="#1B1C1C" cx="45.99" cy="49.6" r="2.48"/>
		<circle fill="#1B1C1C" cx="50.286" cy="52.08" r="2.48"/>
		<circle fill="#1B1C1C" cx="54.581" cy="54.56" r="2.48"/>
		<circle fill="#1B1C1C" cx="58.877" cy="57.04" r="2.48"/>
		<circle fill="#1B1C1C" cx="63.172" cy="59.52" r="2.48"/>
		<circle fill="#1B1C1C" cx="67.467" cy="62" r="2.48"/>
		<circle fill="#1B1C1C" cx="71.763" cy="64.48" r="2.48"/>
		<circle fill="#1B1C1C" cx="76.058" cy="66.96" r="2.48"/>
		<circle fill="#1B1C1C" cx="80.354" cy="69.44" r="2.48"/>
		<circle fill="#1B1C1C" cx="3.036" cy="69.44" r="2.48"/>
		<circle fill="#1B1C1C" cx="7.331" cy="66.96" r="2.48"/>
		<circle fill="#1B1C1C" cx="11.627" cy="64.48" r="2.48"/>
		<circle fill="#1B1C1C" cx="15.922" cy="62" r="2.48"/>
		<circle fill="#1B1C1C" cx="20.218" cy="59.52" r="2.48"/>
		<circle fill="#1B1C1C" cx="24.513" cy="57.04" r="2.48"/>
		<circle fill="#1B1C1C" cx="28.808" cy="54.56" r="2.48"/>
		<circle fill="#1B1C1C" cx="33.104" cy="52.08" r="2.48"/>
		<circle fill="#1B1C1C" cx="37.399" cy="49.6" r="2.48"/>
		<circle fill="#1B1C1C" cx="45.99" cy="44.64" r="2.48"/>
		<circle fill="#1B1C1C" cx="50.286" cy="42.16" r="2.48"/>
		<circle fill="#1B1C1C" cx="54.581" cy="39.68" r="2.48"/>
		<circle fill="#1B1C1C" cx="58.877" cy="37.2" r="2.48"/>
		<circle fill="#1B1C1C" cx="63.172" cy="34.72" r="2.48"/>
		<circle fill="#1B1C1C" cx="67.467" cy="32.24" r="2.48"/>
		<circle fill="#1B1C1C" cx="71.763" cy="29.76" r="2.48"/>
		<circle fill="#1B1C1C" cx="76.058" cy="27.28" r="2.48"/>
		<circle fill="#1B1C1C" cx="80.354" cy="24.8" r="2.48"/>
		<circle fill="#1B1C1C" cx="80.354" cy="29.761" r="2.48"/>
		<circle fill="#1B1C1C" cx="80.354" cy="34.721" r="2.48"/>
		<circle fill="#1B1C1C" cx="80.354" cy="39.682" r="2.48"/>
		<circle fill="#1B1C1C" cx="80.354" cy="44.643" r="2.48"/>
		<circle fill="#1B1C1C" cx="80.354" cy="49.603" r="2.48"/>
		<circle fill="#1B1C1C" cx="80.354" cy="54.564" r="2.48"/>
		<circle fill="#1B1C1C" cx="80.354" cy="59.525" r="2.48"/>
		<circle fill="#1B1C1C" cx="80.354" cy="64.486" r="2.48"/>
		<circle fill="#1B1C1C" cx="7.329" cy="71.921" r="2.48"/>
		<circle fill="#1B1C1C" cx="11.624" cy="74.401" r="2.48"/>
		<circle fill="#1B1C1C" cx="15.92" cy="76.881" r="2.48"/>
		<circle fill="#1B1C1C" cx="20.215" cy="79.361" r="2.48"/>
		<circle fill="#1B1C1C" cx="24.51" cy="81.841" r="2.48"/>
		<circle fill="#1B1C1C" cx="28.806" cy="84.321" r="2.48"/>
		<circle fill="#1B1C1C" cx="33.101" cy="86.801" r="2.48"/>
		<circle fill="#1B1C1C" cx="37.397" cy="89.281" r="2.48"/>
		<circle fill="#1B1C1C" cx="45.988" cy="4.962" r="2.48"/>
		<circle fill="#1B1C1C" cx="50.284" cy="7.442" r="2.48"/>
		<circle fill="#1B1C1C" cx="54.58" cy="9.923" r="2.48"/>
		<circle fill="#1B1C1C" cx="58.877" cy="12.403" r="2.48"/>
		<circle fill="#1B1C1C" cx="63.173" cy="14.883" r="2.48"/>
		<circle fill="#1B1C1C" cx="67.469" cy="17.364" r="2.48"/>
		<circle fill="#1B1C1C" cx="71.765" cy="19.844" r="2.48"/>
		<circle fill="#1B1C1C" cx="76.061" cy="22.324" r="2.48"/>
		<circle fill="#1B1C1C" cx="45.988" cy="89.284" r="2.48"/>
		<circle fill="#1B1C1C" cx="50.283" cy="86.804" r="2.48"/>
		<circle fill="#1B1C1C" cx="54.579" cy="84.324" r="2.48"/>
		<circle fill="#1B1C1C" cx="58.874" cy="81.844" r="2.48"/>
		<circle fill="#1B1C1C" cx="63.169" cy="79.364" r="2.48"/>
		<circle fill="#1B1C1C" cx="67.465" cy="76.884" r="2.48"/>
		<circle fill="#1B1C1C" cx="71.76" cy="74.404" r="2.48"/>
		<circle fill="#1B1C1C" cx="76.056" cy="71.924" r="2.48"/>
		<circle fill="#1B1C1C" cx="7.329" cy="22.324" r="2.48"/>
		<circle fill="#1B1C1C" cx="11.625" cy="19.844" r="2.48"/>
		<circle fill="#1B1C1C" cx="15.921" cy="17.363" r="2.48"/>
		<circle fill="#1B1C1C" cx="20.218" cy="14.883" r="2.48"/>
		<circle fill="#1B1C1C" cx="24.514" cy="12.403" r="2.48"/>
		<circle fill="#1B1C1C" cx="28.81" cy="9.922" r="2.48"/>
		<circle fill="#1B1C1C" cx="33.106" cy="7.442" r="2.48"/>
		<circle fill="#1B1C1C" cx="37.402" cy="4.962" r="2.48"/>
	</g>
	<g>
		<path fill="#1B1C1C" d="M12.877,107.927v9.538H9.679v-9.361c0-1.896-1.155-2.844-2.725-2.844c-1.659,0-3.169,0.978-3.169,3.703
			v8.501h-3.2V96.729h3.2v7.613c0.948-1.452,2.369-2.074,4.206-2.074C10.745,102.269,12.877,104.372,12.877,107.927z"/>
		<path fill="#1B1C1C" d="M26.776,102.654v14.811h-3.199v-1.688c-0.948,1.451-2.4,2.073-4.206,2.073
			c-2.755,0-4.888-2.103-4.888-5.657v-9.538h3.199v9.331c0,1.926,1.156,2.874,2.695,2.874c1.689,0,3.2-1.008,3.2-3.703v-8.501
			H26.776z"/>
		<path fill="#1B1C1C" d="M28.849,96.729h3.2v3.555h-3.2V96.729z M28.849,102.654h3.2v14.811h-3.2V102.654z"/>
		<path fill="#1B1C1C" d="M41.113,117.85c-4.473,0-7.821-3.406-7.821-7.79c0-4.413,3.348-7.79,7.821-7.79
			c3.584,0,6.575,2.281,7.317,5.569h-3.377c-0.623-1.481-2.134-2.429-3.94-2.429c-2.607,0-4.621,1.985-4.621,4.65
			c0,2.666,2.014,4.651,4.621,4.651c1.836,0,3.347-0.978,3.94-2.429h3.377C47.689,115.539,44.697,117.85,41.113,117.85z"/>
		<path fill="#1B1C1C" d="M61.725,107.927v9.538h-3.199v-9.361c0-1.896-1.155-2.844-2.725-2.844c-1.659,0-3.169,0.978-3.169,3.703
			v8.501h-3.2V96.729h3.2v7.613c0.948-1.452,2.369-2.074,4.206-2.074C59.593,102.269,61.725,104.372,61.725,107.927z"/>
		<path fill="#1B1C1C" d="M62.729,110.059c0-4.413,3.496-7.79,7.821-7.79c4.353,0,7.82,3.377,7.82,7.79
			c0,4.384-3.466,7.79-7.82,7.79C66.226,117.85,62.729,114.444,62.729,110.059z M75.17,110.059c0-2.695-2.014-4.68-4.62-4.68
			c-2.607,0-4.621,1.984-4.621,4.68c0,2.696,2.014,4.68,4.621,4.68C73.156,114.739,75.17,112.755,75.17,110.059z"/>
		<path fill="#1B1C1C" d="M79.652,96.137h3.2v21.327h-3.2V96.137z"/>
	</g>
	<g>
		<path fill="#C5C7C9" d="M8.478,129.783c0,2.507-2.021,3.878-4.239,3.878c-2.218,0-4.238-1.371-4.238-3.878h1.263
			c0,1.749,1.335,2.651,2.976,2.651c1.642,0,2.977-0.902,2.977-2.651c0-1.75-1.335-2.651-2.977-2.651v-0.019l-0.018,0.019H3.337
			v-0.83l3.139-4.292H0.541v-1.19h7.396v1.19l-2.94,4.058C6.89,126.32,8.478,127.564,8.478,129.783z"/>
		<path fill="#C5C7C9" d="M20.906,127.131c0,3.48-2.471,6.312-5.952,6.312h-4.688H9.725v-12.625h1.262h3.968
			C18.436,120.819,20.906,123.65,20.906,127.131z M19.68,127.131c0-2.832-1.911-5.122-4.726-5.122h-3.968v10.244h3.968
			C17.769,132.253,19.68,129.963,19.68,127.131z"/>
		<path fill="#C5C7C9" d="M29.794,133.66c-2.724,0-4.743-2.057-4.743-4.726c0-2.67,2.02-4.726,4.743-4.726
			c2.074,0,3.806,1.263,4.329,3.103H32.86c-0.469-1.173-1.659-1.948-3.066-1.948c-2.002,0-3.553,1.569-3.553,3.571
			s1.551,3.571,3.553,3.571c1.425,0,2.615-0.794,3.066-1.948h1.263C33.617,132.398,31.868,133.66,29.794,133.66z"/>
		<path fill="#C5C7C9" d="M34.446,128.935c0-2.67,2.11-4.726,4.743-4.726s4.743,2.056,4.743,4.726c0,2.669-2.11,4.726-4.743,4.726
			S34.446,131.604,34.446,128.935z M42.742,128.935c0-2.002-1.551-3.571-3.553-3.571s-3.553,1.569-3.553,3.571
			s1.551,3.571,3.553,3.571S42.742,130.937,42.742,128.935z"/>
		<path fill="#C5C7C9" d="M45.001,120.458h1.19v12.985h-1.19V120.458z"/>
		<path fill="#C5C7C9" d="M47.255,128.935c0-2.67,2.11-4.726,4.743-4.726s4.743,2.056,4.743,4.726c0,2.669-2.11,4.726-4.743,4.726
			S47.255,131.604,47.255,128.935z M55.551,128.935c0-2.002-1.551-3.571-3.553-3.571s-3.553,1.569-3.553,3.571
			s1.551,3.571,3.553,3.571S55.551,130.937,55.551,128.935z"/>
		<path fill="#C5C7C9" d="M61.861,124.282v1.154c-1.443,0-2.85,0.758-2.85,2.994v5.014h-1.19v-9.018h1.19v1.37
			C59.715,124.642,60.743,124.282,61.861,124.282z"/>
		<path fill="#C5C7C9" d="M62.437,120.819h1.19v1.804h-1.19V120.819z M62.437,124.426h1.19v9.018h-1.19V124.426z"/>
		<path fill="#C5C7C9" d="M72.234,127.546v5.897h-1.19v-5.897c0-1.425-0.884-2.183-2.093-2.183c-1.227,0-2.561,0.758-2.561,2.994
			v5.086H65.2v-9.018h1.19v1.19c0.703-1.064,1.695-1.407,2.777-1.407C70.846,124.209,72.234,125.472,72.234,127.546z"/>
		<path fill="#C5C7C9" d="M82.65,124.426v8.657c0,2.741-2.11,4.184-4.526,4.184c-2.201,0-4.311-1.461-4.311-3.372h1.19
			c0,0.938,1.154,2.218,3.12,2.218c2.182,0,3.336-1.19,3.336-3.029v-1.407c-0.757,1.208-2.038,1.984-3.643,1.984
			c-2.543,0-4.653-2.057-4.653-4.726c0-2.67,2.11-4.726,4.653-4.726c1.604,0,2.886,0.775,3.643,1.984v-1.768H82.65z M81.46,128.935
			c0-2.002-1.551-3.571-3.553-3.571s-3.553,1.569-3.553,3.571s1.551,3.571,3.553,3.571S81.46,130.937,81.46,128.935z"/>
	</g>
</g>
</svg>
