<?xml version="1.0" encoding="utf-8"?>
<!-- Generator: Adobe Illustrator 22.0.1, SVG Export Plug-In . SVG Version: 6.00 Build 0)  -->
<svg version="1.1" id="Layer_1" xmlns="http://www.w3.org/2000/svg" xmlns:xlink="http://www.w3.org/1999/xlink" x="0px" y="0px"
	 viewBox="0 0 84.859 22.397" enable-background="new 0 0 84.859 22.397" xml:space="preserve">
<g>
	<path fill="#FFFFFF" d="M12.68,12.161V22H9.381v-9.656c0-1.956-1.191-2.933-2.811-2.933c-1.711,0-3.269,1.009-3.269,3.82V22H0
		V0.611h3.301v7.853C4.278,6.966,5.744,6.325,7.64,6.325C10.48,6.325,12.68,8.494,12.68,12.161z"/>
	<path fill="#FFFFFF" d="M27.016,6.722V22h-3.299v-1.742c-0.978,1.497-2.476,2.139-4.339,2.139c-2.842,0-5.042-2.169-5.042-5.836
		V6.722h3.299v9.625c0,1.986,1.192,2.964,2.78,2.964c1.742,0,3.301-1.039,3.301-3.82V6.722H27.016z"/>
	<path fill="#FFFFFF" d="M29.155,0.611h3.301v3.667h-3.301V0.611z M29.155,6.722h3.301V22h-3.301V6.722z"/>
	<path fill="#FFFFFF" d="M41.806,22.397c-4.614,0-8.067-3.513-8.067-8.036c0-4.552,3.454-8.036,8.067-8.036
		c3.696,0,6.783,2.353,7.547,5.744H45.87c-0.642-1.528-2.201-2.505-4.064-2.505c-2.689,0-4.767,2.047-4.767,4.797
		c0,2.75,2.078,4.798,4.767,4.798c1.894,0,3.452-1.009,4.064-2.505h3.483C48.589,20.013,45.502,22.397,41.806,22.397z"/>
	<path fill="#FFFFFF" d="M63.067,12.161V22h-3.299v-9.656c0-1.956-1.191-2.933-2.811-2.933c-1.711,0-3.269,1.009-3.269,3.82V22
		h-3.301V0.611h3.301v7.853c0.978-1.497,2.444-2.139,4.339-2.139C60.868,6.325,63.067,8.494,63.067,12.161z"/>
	<path fill="#FFFFFF" d="M64.103,14.361c0-4.552,3.607-8.036,8.067-8.036c4.49,0,8.066,3.484,8.066,8.036
		c0,4.523-3.576,8.036-8.066,8.036C67.709,22.397,64.103,18.883,64.103,14.361z M76.936,14.361c0-2.78-2.078-4.827-4.765-4.827
		c-2.689,0-4.767,2.047-4.767,4.827c0,2.781,2.078,4.828,4.767,4.828C74.858,19.188,76.936,17.142,76.936,14.361z"/>
	<path fill="#FFFFFF" d="M81.559,0h3.301v22h-3.301V0z"/>
</g>
</svg>
